<?xml version="1.0" standalone="no"?>
<!DOCTYPE svg PUBLIC "-//W3C//DTD SVG 20010904//EN"
 "http://www.w3.org/TR/2001/REC-SVG-20010904/DTD/svg10.dtd">
<svg version="1.0" xmlns="http://www.w3.org/2000/svg"
 width="260.000000pt" height="260.000000pt" viewBox="0 0 260.000000 260.000000"
 preserveAspectRatio="xMidYMid meet">
<metadata>
Created by potrace 1.11, written by Peter Selinger 2001-2013
</metadata>
<g transform="translate(0.000000,260.000000) scale(0.100000,-0.100000)"
fill="#000000" stroke="none">
<path d="M495 2135 c-156 -55 -178 -303 -34 -385 74 -41 196 -35 247 12 29 28
28 32 -8 58 l-30 22 -32 -27 c-88 -75 -216 43 -179 165 25 83 117 125 174 80
31 -25 35 -25 70 4 27 22 27 22 8 40 -47 43 -143 57 -216 31z"/>
<path d="M1315 2135 c-156 -55 -178 -303 -34 -385 74 -41 196 -35 247 12 29
28 28 32 -8 58 l-30 22 -32 -27 c-88 -75 -216 43 -179 165 25 83 117 125 174
80 31 -25 35 -25 70 4 27 22 27 22 8 40 -47 43 -143 57 -216 31z"/>
<path d="M1612 2111 c-16 -50 -15 -51 8 -51 19 0 27 11 44 68 6 19 4 22 -17
22 -19 0 -26 -8 -35 -39z"/>
<path d="M180 1935 l0 -205 45 0 45 0 0 205 0 205 -45 0 -45 0 0 -205z"/>
<path d="M820 1935 l0 -205 40 0 40 0 0 79 0 78 63 5 c86 7 123 28 138 77 6
22 9 54 5 73 -13 72 -66 98 -203 98 l-83 0 0 -205z m178 119 c50 -35 12 -94
-60 -94 l-38 0 0 55 0 55 38 0 c21 0 48 -7 60 -16z"/>
<path d="M1798 2092 c-31 -26 -57 -52 -57 -58 -1 -17 37 -47 51 -40 7 3 23 13
36 22 l22 16 0 -151 0 -151 40 0 40 0 0 205 0 205 -37 0 c-30 -1 -50 -11 -95
-48z"/>
<path d="M2179 2038 c-57 -94 -63 -109 -67 -169 -4 -59 -2 -68 22 -96 33 -39
85 -57 143 -49 57 8 80 20 103 59 53 86 -6 207 -100 207 -27 0 -24 9 25 85 19
31 35 58 35 60 0 3 -22 5 -49 5 l-48 0 -64 -102z m120 -134 c12 -15 21 -34 21
-44 0 -28 -39 -70 -65 -70 -26 0 -65 42 -65 70 0 28 39 70 65 70 14 0 32 -11
44 -26z"/>
<path d="M80 650 l0 -570 1220 0 1220 0 0 570 0 570 -1220 0 -1220 0 0 -570z
m1245 176 l28 -18 -31 -31 -31 -31 -35 19 c-29 16 -39 17 -61 7 -56 -26 -37
-71 40 -92 68 -19 106 -56 112 -110 9 -90 -53 -150 -155 -150 -57 0 -120 23
-129 47 -3 8 6 27 21 41 22 23 29 25 44 14 51 -36 103 -37 123 -1 16 31 -5 54
-70 78 -77 28 -111 66 -111 125 0 50 27 91 74 112 42 19 145 14 181 -10z
m-854 -176 c104 -244 100 -220 41 -220 l-50 0 -18 45 -17 46 -80 -3 -80 -3
-16 -42 c-15 -43 -16 -43 -64 -43 -58 0 -63 -22 45 226 l81 185 39 -3 39 -3
80 -185z m249 50 c0 -82 5 -149 11 -164 16 -35 61 -52 98 -37 44 19 51 48 51
201 l0 140 46 0 46 0 -4 -159 c-3 -177 -8 -191 -78 -238 -45 -31 -127 -31
-181 -1 -66 37 -79 78 -79 251 l0 147 45 0 45 0 0 -140z m1010 105 l0 -35 -60
0 -60 0 0 -170 0 -170 -45 0 -45 0 0 170 0 170 -60 0 -60 0 0 35 0 35 165 0
165 0 0 -35z m170 -170 l0 -205 -45 0 -45 0 0 205 0 205 45 0 45 0 0 -205z
m310 72 l85 -132 3 133 3 132 44 0 45 0 0 -205 0 -206 -56 3 -57 3 -86 135
-86 135 -3 -137 -3 -138 -44 0 -45 0 0 205 0 205 58 0 57 0 85 -133z"/>
<path d="M324 658 c-10 -29 -20 -56 -22 -60 -2 -4 19 -8 46 -8 l50 0 -20 53
c-11 28 -23 55 -27 60 -4 4 -16 -16 -27 -45z"/>
</g>
</svg>
